<svg xmlns="http://www.w3.org/2000/svg" viewBox="0 0 1400 700" role="img" aria-labelledby="title desc"><title id="title">Aplicações da identidade VERA</title><desc id="desc">Painel editorial com embalagens, cartão, celular e amostras de cor da marca VERA.</desc><defs><linearGradient id="bg" x1="0" y1="0" x2="1" y2="1"><stop stop-color="#1f3a32"/><stop offset="1" stop-color="#713b4a"/></linearGradient><filter id="shadow"><feDropShadow dx="0" dy="14" stdDeviation="14" flood-opacity=".25"/></filter></defs><rect width="1400" height="700" fill="url(#bg)"/><circle cx="1180" cy="100" r="260" fill="#d9a8ae" opacity=".2"/><circle cx="140" cy="650" r="250" fill="#b39263" opacity=".18"/><g filter="url(#shadow)"><rect x="100" y="80" width="470" height="540" rx="8" fill="#f4ede4"/><text x="150" y="150" font-family="Arial" font-size="17" letter-spacing="5" fill="#713b4a">VERA / IDENTIDADE</text><text x="150" y="260" font-family="Georgia,serif" font-size="72" fill="#1f3a32">Cuidado</text><text x="150" y="335" font-family="Georgia,serif" font-size="72" fill="#713b4a">que floresce.</text><path d="M150 405h320" stroke="#b39263" stroke-width="4"/><text x="150" y="475" font-family="Arial" font-size="19" fill="#1f3a32">manual de marca · aplicações</text><circle cx="465" cy="520" r="45" fill="#d9a8ae"/><path d="M465 555V485m0 28c-35-8-45-27-48-52 36 0 51 22 48 52m0 15c35-8 45-27 48-52-36 0-51 22-48 52" fill="none" stroke="#713b4a" stroke-width="4"/></g><g filter="url(#shadow)"><rect x="700" y="110" width="270" height="500" rx="36" fill="#f4ede4"/><rect x="718" y="130" width="234" height="460" rx="24" fill="#d9a8ae"/><text x="835" y="240" text-anchor="middle" font-family="Georgia,serif" font-size="42" fill="#713b4a">VERA</text><rect x="750" y="290" width="170" height="110" rx="8" fill="#f4ede4"/><text x="835" y="342" text-anchor="middle" font-family="Arial" font-size="14" letter-spacing="3" fill="#1f3a32">NOVA LINHA</text><text x="835" y="372" text-anchor="middle" font-family="Georgia,serif" font-size="18" fill="#713b4a">botânica</text></g><g transform="translate(1070 150)"><rect width="190" height="190" rx="95" fill="#b39263"/><rect x="35" y="35" width="120" height="120" rx="60" fill="#1f3a32"/><text x="95" y="103" text-anchor="middle" font-family="Georgia,serif" font-size="25" fill="#f4ede4">VERA</text><circle cx="95" cy="440" r="82" fill="#8f9c86"/><circle cx="95" cy="440" r="52" fill="#f4ede4"/><path d="M95 470V410m0 20c-25-6-32-19-34-36 26 0 36 15 34 36m0 10c25-6 32-19 34-36-26 0-36 15-34 36" fill="none" stroke="#713b4a" stroke-width="3"/></g></svg>
